# xmcd
#
# Track frame offsets:
#	150
#	36449
#	52215
#	79149
#	94075
#	130812
#	158812
#	185872
#	204896
#	271069
#	323089
#
# Disc length: 4741 seconds
#
# Revision: 0
# Processed by: cddbd v1.5.2PL0 Copyright (c) Steve Scherf et al.
# Submitted via: EZCDAudioConverter 2.1.7.1
#
DISCID=9812830b
DTITLE=V/A - Nigeria 70 2/2
DYEAR=1900
DGENRE=
TTITLE0=Orlando Julius and The Afro Sounders - Alo Mi Alo
TTITLE1=Ofo The Black Company - Allah Wakbarr
TTITLE2=Sahara All Stars Band Jos - Enjoy Yourself
TTITLE3=The Funkees - Dancing Time
TTITLE4=Afro Cult Foundation - The Quest
TTITLE5=Joni Haastrup - Greetings
TTITLE6=Gasper Lawal - Kita Kita
TTITLE7=Lijadu Sisters - Orere Elejigbo
TTITLE8=Fela Anikulapo Kuti and The Africa 70 With Sandra Akanke Isidore - Upsid
TTITLE8=e Down
TTITLE9=Shina Williams and His African Percussionists - Agboju Logun
TTITLE10=Sunny Ade and His African Beats - Ja Fun Mi [Instrumental]
EXTD=
EXTT0=
EXTT1=
EXTT2=
EXTT3=
EXTT4=
EXTT5=
EXTT6=
EXTT7=
EXTT8=
EXTT9=
EXTT10=
PLAYORDER=
